<svg width="22" height="22" viewBox="0 0 22 22" fill="none" xmlns="http://www.w3.org/2000/svg">
<path d="M21.0171 10.9935L21.0171 18.9035C21.0257 19.4068 20.9074 19.9042 20.6732 20.3498C20.4391 20.7954 20.0965 21.175 19.6771 21.4535C19.1903 21.7932 18.6107 21.9747 18.0171 21.9735L12.0171 21.9735C11.8181 21.9876 11.6198 21.9381 11.4508 21.832C11.2818 21.7259 11.1509 21.5688 11.0771 21.3835C10.9881 21.2092 10.9556 21.0115 10.9843 20.8179C11.013 20.6242 11.1014 20.4444 11.2371 20.3035C11.334 20.196 11.453 20.1109 11.5859 20.0539C11.7189 19.997 11.8626 19.9695 12.0071 19.9735L17.9471 19.9735C18.1049 19.9778 18.2614 19.9447 18.404 19.8769C18.5465 19.8091 18.6709 19.7086 18.7671 19.5835C18.8975 19.4183 18.968 19.2139 18.9671 19.0035L18.9671 3.06346C18.9777 2.91937 18.957 2.77469 18.9063 2.63938C18.8557 2.50406 18.7763 2.38134 18.6736 2.27965C18.571 2.17796 18.4475 2.09972 18.3118 2.05031C18.176 2.00091 18.0311 1.98151 17.8871 1.99346L12.0171 1.99346C11.8608 1.99887 11.7053 1.96751 11.5633 1.9019C11.4212 1.83629 11.2966 1.73827 11.1993 1.61572C11.102 1.49316 11.0349 1.34949 11.0032 1.19626C10.9716 1.04303 10.9764 0.88452 11.0171 0.733463C11.0722 0.53492 11.1873 0.358234 11.3466 0.227568C11.5059 0.0969009 11.7017 0.0186309 11.9071 0.0034637C11.9504 -0.00109105 11.9939 -0.00109105 12.0371 0.0034637L17.9271 0.00346344C18.7228 0.00346341 19.4859 0.319534 20.0485 0.882143C20.6111 1.44475 20.9271 2.20781 20.9271 3.00346L21.0171 10.9935Z" fill="#EA574E"/>
<path d="M13.9072 11.7635L1.10721 11.7635C0.899125 11.7753 0.691734 11.7304 0.50721 11.6335C0.313759 11.5239 0.162333 11.353 0.0768595 11.1478C-0.00861387 10.9426 -0.0232597 10.7147 0.0352363 10.5002C0.0937323 10.2857 0.222034 10.0969 0.399867 9.96345C0.577701 9.83003 0.794924 9.75967 1.01721 9.76349L13.9072 9.76349L13.7872 9.61349L11.7872 7.16349C11.6614 7.00031 11.5891 6.80225 11.5802 6.59641C11.5712 6.39056 11.6261 6.18698 11.7372 6.01349C11.8193 5.87087 11.9353 5.75071 12.075 5.66367C12.2146 5.57663 12.3736 5.52539 12.5378 5.51451C12.702 5.50363 12.8663 5.53344 13.0162 5.60129C13.1662 5.66915 13.297 5.77295 13.3972 5.90349L16.6672 9.99349C16.8378 10.2024 16.931 10.4638 16.931 10.7335C16.931 11.0032 16.8378 11.2646 16.6672 11.4735L13.3872 15.6035C13.2217 15.7994 12.9872 15.9243 12.7322 15.9522C12.4772 15.9801 12.2212 15.909 12.0172 15.7535C11.9145 15.671 11.8291 15.569 11.7659 15.4533C11.7027 15.3377 11.663 15.2107 11.6491 15.0797C11.6352 14.9486 11.6472 14.8162 11.6847 14.6898C11.7221 14.5635 11.7841 14.4458 11.8672 14.3435L13.2872 12.5735L13.9072 11.7635Z" fill="#EA574E"/>
</svg>
