<svg width="15" height="15" viewBox="0 0 15 15" fill="none" xmlns="http://www.w3.org/2000/svg">
<path d="M13.9587 1.07146H12.8571V2.43419C12.8571 3.18753 12.0804 3.75003 11.2768 3.75003C10.4732 3.75003 9.64286 3.18753 9.64286 2.43419V1.07146H5.35714V2.43419C5.35714 3.18753 4.55357 3.75003 3.75 3.75003C2.94643 3.75003 2.14286 3.18753 2.14286 2.43419V1.07146H1.04129C0.465402 1.07146 0 1.51678 0 2.05584V14.0257C0 14.5648 0.465402 15 1.04129 15H13.9587C14.5346 15 15 14.5648 15 14.0224V2.05584C15 1.51678 14.5346 1.07146 13.9587 1.07146ZM13.3929 12.9878C13.3929 13.2087 13.1987 13.3895 12.9643 13.3895L2.03237 13.3929C1.79799 13.3828 1.60714 13.2054 1.60714 12.9844V5.23329C1.60714 5.00227 1.80469 4.82146 2.05246 4.82146H12.9509C13.1953 4.82146 13.3929 4.99892 13.3929 5.2266V12.9878Z" fill="#EA574E"/>
<path d="M4.82132 2.14286C4.82132 2.73549 4.34253 3.21429 3.7499 3.21429C3.15726 3.21429 2.67847 2.73549 2.67847 2.14286V1.07143C2.67847 0.478795 3.15726 0 3.7499 0C4.34253 0 4.82132 0.478795 4.82132 1.07143V2.14286Z" fill="#EA574E"/>
<path d="M12.3213 2.14286C12.3213 2.73549 11.8425 3.21429 11.2499 3.21429C10.6573 3.21429 10.1785 2.73549 10.1785 2.14286V1.07143C10.1785 0.478795 10.6573 0 11.2499 0C11.8425 0 12.3213 0.478795 12.3213 1.07143V2.14286Z" fill="#EA574E"/>
</svg>
